<?xml version="1.0" standalone="no"?><!DOCTYPE svg PUBLIC "-//W3C//DTD SVG 1.1//EN" "http://www.w3.org/Graphics/SVG/1.1/DTD/svg11.dtd"><svg t="1629255312238" class="icon" viewBox="0 0 1024 1024" version="1.1" xmlns="http://www.w3.org/2000/svg" p-id="1866" xmlns:xlink="http://www.w3.org/1999/xlink" width="200" height="200"><defs><style type="text/css"></style></defs><path d="M168.682667 213.333333h618.048a128 128 0 0 1 127.466666 139.776l-27.626666 298.666667A128 128 0 0 1 759.125333 768h-484.48A128 128 0 0 1 147.2 651.776L129.152 456.533333a32.213333 32.213333 0 0 1-1.002667-5.333333l-32-320a32 32 0 0 1 63.701334-6.357333L168.682667 213.333333z m8.170666 64l34.069334 368.554667A64 64 0 0 0 274.666667 704h484.458666a64 64 0 0 0 63.722667-58.112l27.605333-298.666667A64 64 0 0 0 786.730667 277.333333H176.853333z m89.813334 661.333334a53.333333 53.333333 0 1 1 0-106.666667 53.333333 53.333333 0 0 1 0 106.666667z m490.666666 0a53.333333 53.333333 0 1 1 0-106.666667 53.333333 53.333333 0 0 1 0 106.666667z" fill="#000000" p-id="1867"></path></svg>