<?xml version="1.0" standalone="no"?><!DOCTYPE svg PUBLIC "-//W3C//DTD SVG 1.1//EN" "http://www.w3.org/Graphics/SVG/1.1/DTD/svg11.dtd"><svg t="1628917027341" class="icon" viewBox="0 0 1024 1024" version="1.1" xmlns="http://www.w3.org/2000/svg" p-id="3932" xmlns:xlink="http://www.w3.org/1999/xlink" width="32" height="32"><defs><style type="text/css"></style></defs><path d="M657.766 138.692c-48.746 0-92.808 20.032-124.448 52.31-31.624-32.28-75.686-52.31-124.434-52.31-96.216 0-174.212 77.998-174.212 174.212 0 199.088 298.646 373.286 298.646 373.286s298.694-174.198 298.694-373.286c0-96.214-78.03-174.212-174.246-174.212z" fill="#ED5564" p-id="3933"></path><path d="M657.766 138.692c-7.216 0-14.31 0.438-21.31 1.312 86.124 10.5 152.87 83.904 152.87 172.9 0 166.556-208.992 315.724-277.318 359.972 13.312 8.688 21.312 13.312 21.312 13.312s298.694-174.198 298.694-373.286c-0.002-96.212-78.032-174.21-174.248-174.21z" fill="#FFFFFF" opacity=".2" p-id="3934"></path><path d="M901.758 596.628c-6.688-0.5-14.032-0.75-22.06-0.75-52.498 0-134.278 11.188-246.304 30.938-13.936-39.75-102.512-57.186-102.512-57.186s-191.12-10.438-313.114-17.062a401.274 401.274 0 0 0-22.562-0.624c-161.62-0.062-195.18 100.81-195.18 100.81v104.496c0.062 59.934 184.682 89.308 185.306 89.372 146.652 29 326.926 38.688 326.926 38.688s493.998-194.056 506.936-205.432c12.966-11.314 7.31-73.25-117.436-83.25z" fill="#EAC6BB" p-id="3935"></path><path d="M771.824 604.816c-38.808 5.188-84.058 12.438-135.744 21.5a2006.398 2006.398 0 0 1-20.374 8.938c-135.576 57.81-231.446 69.934-287.976 69.934-11.782 0-21.344 9.562-21.344 21.376 0 11.75 9.562 21.312 21.344 21.312 88.216 0 190.962-24.812 305.38-73.686 69.218-29.562 120.842-58.812 138.714-69.374z" fill="#DBADA2" p-id="3936"></path></svg>