<?xml version="1.0" standalone="no"?><!DOCTYPE svg PUBLIC "-//W3C//DTD SVG 1.1//EN" "http://www.w3.org/Graphics/SVG/1.1/DTD/svg11.dtd"><svg t="1629094360460" class="icon" viewBox="0 0 1024 1024" version="1.1" xmlns="http://www.w3.org/2000/svg" p-id="3198" xmlns:xlink="http://www.w3.org/1999/xlink" width="200" height="200"><defs><style type="text/css"></style></defs><path d="M893.44 307.484444a185.173333 185.173333 0 0 0-56.888889-76.231111 227.555556 227.555556 0 0 0-317.44 13.368889L512 256l-6.542222-6.826667a235.52 235.52 0 0 0-155.306667-72.533333 203.946667 203.946667 0 0 0-158.151111 58.026667 297.528889 297.528889 0 0 0-56.888889 75.946666 217.315556 217.315556 0 0 0-19.911111 89.315556 202.24 202.24 0 0 0 16.497778 89.315555A253.44 253.44 0 0 0 182.044444 568.888889l241.493334 248.035555a128.568889 128.568889 0 0 0 185.457778 0L850.488889 568.888889a203.946667 203.946667 0 0 0 49.493333-79.644445 281.315556 281.315556 0 0 0 16.497778-89.315555 534.186667 534.186667 0 0 0-23.04-92.444445zM390.542222 347.022222a31.288889 31.288889 0 0 1-29.866666 26.453334 39.822222 39.822222 0 0 0-19.626667 3.413333 81.066667 81.066667 0 0 0-33.28 16.497778c-6.542222 6.542222-6.542222 13.368889-9.955556 16.497777v3.413334c-3.128889 6.542222-3.128889 13.084444-6.542222 19.911111a32.142222 32.142222 0 0 1-32.995555 26.453333h-6.542223a32.711111 32.711111 0 0 1-26.453333-36.408889c3.128889-13.368889 6.542222-23.324444 9.671111-32.995555a106.951111 106.951111 0 0 1 16.782222-33.28 124.586667 124.586667 0 0 1 102.4-46.364445 39.253333 39.253333 0 0 1 36.408889 36.408889z" p-id="3199" fill="#FB3D49"></path></svg>