<?xml version="1.0" standalone="no"?><!DOCTYPE svg PUBLIC "-//W3C//DTD SVG 1.1//EN" "http://www.w3.org/Graphics/SVG/1.1/DTD/svg11.dtd"><svg t="1629183457562" class="icon" viewBox="0 0 1024 1024" version="1.1" xmlns="http://www.w3.org/2000/svg" p-id="9870" xmlns:xlink="http://www.w3.org/1999/xlink" width="200" height="200"><defs><style type="text/css"></style></defs><path d="M512 343.04c87.64416 0 158.72 71.04512 158.72 158.72 0 87.64416-71.07584 158.72-158.72 158.72-87.64416 0-158.72-71.07584-158.72-158.72 0-87.67488 71.07584-158.72 158.72-158.72z m417.28 81.92c46.64832 0 84.48 37.8112 84.48 84.48 0 46.64832-37.83168 84.48-84.48 84.48S844.8 556.08832 844.8 509.44c0-46.6688 37.83168-84.48 84.48-84.48zM179.2 511.14496c0 46.65344-37.83168 84.48-84.48 84.48S10.24 557.7984 10.24 511.14496c0-46.66368 37.83168-84.48 84.48-84.48S179.2 464.4864 179.2 511.14496z" p-id="9871" fill="#515151"></path></svg>