<?xml version="1.0" standalone="no"?><!DOCTYPE svg PUBLIC "-//W3C//DTD SVG 1.1//EN" "http://www.w3.org/Graphics/SVG/1.1/DTD/svg11.dtd"><svg t="1630464373834" class="icon" viewBox="0 0 1024 1024" version="1.1" xmlns="http://www.w3.org/2000/svg" p-id="6175" width="400" height="400" xmlns:xlink="http://www.w3.org/1999/xlink"><defs><style type="text/css"></style></defs><path d="M292.12672 727.63392c-175.9744-31.87712-178.93376-245.72928-178.93376-245.72928C-9.6256 668.38528 76.83072 839.77216 184.48384 906.48576c25.76384 15.17568 53.06368 25.76384 80.35328 27.2896 137.99424 10.5984 154.69568-63.65184 154.69568-63.65184s48.47616-110.70464-127.40608-142.4896zM604.47744 870.12352s16.70144 74.25024 154.69568 63.65184c27.2896-1.52576 54.58944-12.12416 80.35328-27.2896 107.64288-66.70336 194.10944-238.10048 71.29088-424.57088 0 0-2.95936 213.8624-178.93376 245.72928-175.89248 31.77472-127.40608 142.47936-127.40608 142.47936zM122.2656 319.67232c-1.52576 4.57728-1.52576 10.5984-3.05152 15.17568-3.05152 21.18656-3.05152 40.93952-1.52576 60.69248 3.05152-19.75296 7.53664-39.41376 13.64992-57.64096l4.57728-13.64992c37.888-71.29088 97.05472-134.94272 172.83072-180.45952-1.52576-4.57728-3.05152-10.5984-7.53664-15.17568-30.34112-34.83648-115.28192-45.5168-166.8096 4.57728-51.53792 50.01216-51.53792 144.00512-21.18656 178.93376 2.93888 3.06176 6.00064 6.02112 9.05216 7.54688zM698.4704 140.73856c1.52576 0 1.52576 1.52576 3.05152 1.52576 77.30176 39.41376 141.04576 97.05472 183.51104 165.28384 9.07264 0 18.2272-4.57728 25.76384-13.64992 25.76384-36.36224 18.2272-130.36544-36.36224-175.88224-56.20736-47.04256-138.0864-30.34112-166.90176 6.01088-1.52576 0-3.05152 0-4.57728-1.52576-10.5984-1.52576-21.18656-3.05152-30.34112-4.57728-21.18656-1.52576-40.93952-1.52576-60.69248 0 19.75296 1.52576 39.41376 6.10304 59.16672 12.12416 9.1648 3.15392 18.31936 6.20544 27.38176 10.69056z" p-id="6176"></path><path d="M512 612.57728c-12.09344 0-84.62336 35.96288-134.18496-22.05696 14.51008 48.35328 99.1232 57.72288 134.18496 57.72288 36.87424 0 119.98208-9.3696 134.18496-57.72288-49.5616 58.32704-122.09152 22.05696-134.18496 22.05696zM425.2672 513.45408c0 37.1712 79.17568 64.07168 86.7328 61.952 7.55712 2.11968 86.7328-24.7808 86.7328-61.952 0-20.55168-64.07168-24.7808-86.7328-24.7808s-86.7328 4.22912-86.7328 24.7808zM375.7056 259.20512c-37.1712 0-148.69504 74.3424-148.69504 123.904s60.13952 108.8 111.5136 74.3424c37.1712-24.7808 99.1232-111.5136 99.1232-136.2944 0.01024-34.14016-27.79136-61.952-61.94176-61.952z m12.3904 83.41504c-7.55712 4.53632-17.22368 4.53632-24.7808 0-7.55712-4.53632-12.3904-12.6976-12.3904-21.4528 0-8.76544 4.83328-16.92672 12.3904-21.4528 7.55712-4.53632 17.22368-4.53632 24.7808 0 7.55712 4.53632 12.3904 12.6976 12.3904 21.4528 0 8.7552-4.84352 16.91648-12.3904 21.4528zM648.2944 253.24544c-34.1504 0-61.952 27.8016-61.952 61.952 0 24.7808 61.952 111.5136 99.1232 136.2944 51.68128 34.4576 111.5136-24.7808 111.5136-74.3424s-111.50336-123.904-148.6848-123.904z m12.40064 83.41504c-7.55712 4.53632-17.22368 4.53632-24.7808 0-7.55712-4.53632-12.3904-12.6976-12.3904-21.4528s4.83328-16.92672 12.3904-21.4528c7.55712-4.53632 17.22368-4.53632 24.7808 0 7.55712 4.53632 12.3904 12.6976 12.3904 21.4528s-4.84352 16.91648-12.3904 21.4528z" p-id="6177"></path></svg>